<svg xmlns="http://www.w3.org/2000/svg" viewBox="0 0 100 100" width="100" height="100">
  <rect width="100" height="100" rx="22" fill="#f4f2ec"/>
  <g transform="translate(12.54 80.00) scale(0.08571)">
    <path d="M196 0L70 0L70-496L196-496L196 0M133-554Q99-554 75.500-576Q52-598 52-634Q52-670 75.500-692Q99-714 133-714Q168-714 191-692Q214-670 214-634Q214-598 191-576Q168-554 133-554M490 14Q437 14 395-4.500Q353-23 328.500-58.500Q304-94 304-145Q304-196 328.500-230.500Q353-265 396.500-282.500Q440-300 496-300L632-300L632-328Q632-363 610-385.500Q588-408 540-408Q493-408 470-386.500Q447-365 440-331L324-370Q336-408 362.500-439.500Q389-471 433.500-490.500Q478-510 542-510Q640-510 697-461Q754-412 754-319L754-134Q754-104 782-104L822-104L822 0L738 0Q701 0 677-18Q653-36 653-66L653-67L634-67Q630-55 616-35.500Q602-16 572-1Q542 14 490 14M512-88Q565-88 598.500-117.500Q632-147 632-196L632-206L505-206Q470-206 450-191Q430-176 430-149Q430-122 451-105Q472-88 512-88" fill="#1b1916"/>
  </g>
</svg>
